<?xml version="1.0" encoding="UTF-8"?>
<svg width="15px" height="22px" viewBox="0 0 15 22" version="1.1" xmlns="http://www.w3.org/2000/svg" xmlns:xlink="http://www.w3.org/1999/xlink">
    <!-- Generator: sketchtool 64 (101010) - https://sketch.com -->
    <title>D478E3CD-5789-4E86-ACE4-BA82F7BC09E7</title>
    <desc>Created with sketchtool.</desc>
    <defs>
        <path d="M46.5872483,52.938244 C47.1241638,53.4312042 47.7617413,53.6776806 48.5,53.6776806 C49.2382587,53.6776806 49.8674471,53.4229883 50.3875839,52.9135961 C50.9077207,52.4042039 51.1677852,51.7880128 51.1677852,51.0650045 C51.1677852,50.3419962 50.9077207,49.7258052 50.3875839,49.216413 C49.8674471,48.7070208 49.2382587,48.4523285 48.5,48.4523285 C47.7617413,48.4523285 47.1325529,48.7070208 46.6124161,49.216413 C46.0922793,49.7258052 45.8322148,50.3419962 45.8322148,51.0650045 C45.8322148,51.7880128 46.0838901,52.4124197 46.5872483,52.938244 Z M43.1644295,45.8889482 C44.640947,44.4429316 46.4194527,43.7199341 48.5,43.7199341 C50.5805473,43.7199341 52.3506638,44.4347157 53.8104027,45.8643003 C55.2701415,47.2938849 56,49.0274357 56,51.0650045 C56,52.083789 55.7399355,53.250444 55.2197987,54.5650045 C54.6996618,55.8795651 54.0704735,57.1119471 53.3322148,58.2621876 C52.593956,59.4124281 51.8640976,60.4887084 51.1426174,61.4910609 C50.4211373,62.4934133 49.8087273,63.2903537 49.3053691,63.8819059 L48.5,64.7199341 C48.2986567,64.489886 48.030203,64.1858984 47.6946309,63.8079623 C47.3590587,63.4300261 46.7550379,62.6741651 45.8825503,61.5403566 C45.0100628,60.4065482 44.2466476,59.3056202 43.5922819,58.2375397 C42.9379162,57.1694593 42.3422846,55.9617249 41.8053691,54.6143003 C41.2684537,53.2668757 41,52.083789 41,51.0650045 C41,49.0274357 41.7214693,47.3021008 43.1644295,45.8889482 Z" id="path-1"></path>
    </defs>
    <g id="Homepage" stroke="none" stroke-width="1" fill="none" fill-rule="evenodd">
        <g id="Slatkoteka-Lokacije" transform="translate(-195.000000, -890.000000)">
            <g id="Group-20-Copy" transform="translate(154.000000, 847.000000)">
                <mask id="mask-2" fill="white">
                    <use xlink:href="#path-1"></use>
                </mask>
                <use id="🎨-icon-fill" fill="#F650A0" xlink:href="#path-1"></use>
            </g>
        </g>
    </g>
</svg>