<?xml version="1.0" encoding="UTF-8"?>
<svg width="128px" height="35px" viewBox="0 0 128 35" version="1.1" xmlns="http://www.w3.org/2000/svg" xmlns:xlink="http://www.w3.org/1999/xlink">
    <!-- Generator: sketchtool 64 (101010) - https://sketch.com -->
    <title>6D6A7499-FBE0-44E9-BFAA-9564E7A879BD</title>
    <desc>Created with sketchtool.</desc>
    <g id="Homepage" stroke="none" stroke-width="1" fill="none" fill-rule="evenodd">
        <g id="Slatkoteka-Lokacije" transform="translate(-150.000000, -18.000000)">
            <g id="Group-11" transform="translate(150.000000, 18.000000)">
                <g id="Group-5" transform="translate(0.000000, 0.169764)" fill="#ED589D">
                    <path d="M73.5808276,10.9341378 C73.5463448,10.7742953 73.5162759,10.5298465 73.4395862,10.3008307 C73.2897931,9.85354724 73.1008276,9.73835039 72.6368276,9.7788622 C72.2304828,9.81468898 71.9074483,9.97590945 71.7593103,10.3873661 C71.6147586,10.7913819 71.7137931,11.1391772 72.0282759,11.4147677 C72.210069,11.5746102 72.4053793,11.7333504 72.6230345,11.8314606 C73.1314483,12.0599252 73.4326897,11.8923661 73.5449655,11.3516575 C73.5670345,11.2433504 73.5651034,11.1295315 73.5808276,10.9341378 M88.9295172,13.1755157 C89.0704828,13.1573268 89.2097931,13.1589803 89.3375172,13.1215 C90.7471724,12.7056339 91.8081379,11.862878 92.4150345,10.5144134 C92.5852414,10.1387835 92.7993103,9.67827165 92.4266207,9.3153189 C92.0613793,8.95705118 91.5681379,9.03890157 91.1615172,9.24366535 C90.5057931,9.57712992 89.8475862,9.93153937 89.2630345,10.3724843 C88.7866207,10.7332323 88.3769655,11.2044921 88.0095172,11.681815 C87.530069,12.3021693 87.7769655,12.9043346 88.5383448,13.1099252 C88.6671724,13.144374 88.802069,13.1542953 88.9295172,13.1755157 M66.2746207,18.6699646 C66.2746207,18.8942953 66.2536552,19.1202795 66.2795862,19.3429567 C66.354069,20.0189803 66.7455172,20.3102795 67.3948966,20.1195709 C67.7755862,20.0074055 68.1634483,19.8431535 68.4867586,19.6179961 C69.8773793,18.6465394 71.0862069,17.4865787 72.0246897,16.060122 C72.098069,15.9487835 72.1678621,15.8319331 72.2238621,15.7103976 C72.5295172,15.0668937 72.3634483,14.6019724 71.7488276,14.2467362 C71.3242759,14.0020118 70.9146207,13.7269724 70.5198621,13.4348465 C70.2514483,13.2353189 70.0266207,12.9776417 69.7733793,12.7563425 C69.3995862,12.4305945 69.1424828,12.427563 68.7634483,12.7414606 C68.6442759,12.8420512 68.5391724,12.9619331 68.4354483,13.0779567 C67.0172414,14.6725236 66.389931,16.5749252 66.2746207,18.6699646 M80.7507586,7.71358661 C80.1231724,7.69098819 79.7173793,7.44874409 79.6371034,6.82866535 C79.5590345,6.21547638 79.802069,5.70673622 80.4106207,5.38815354 C80.7662069,5.2026811 81.1573793,5.06957087 81.5466207,4.97394094 C82.2045517,4.81244488 82.6787586,4.43405906 82.9835862,3.84567323 C83.2602759,3.30909843 83.4815172,2.74331102 83.762069,2.20811417 C83.9135172,1.91764173 84.092,1.61146063 84.3366897,1.40972835 C84.748,1.07020079 85.3606897,1.12146063 85.7750345,1.44720866 C86.202069,1.77984646 86.3535172,2.24724803 86.1868966,2.76921654 C86.066069,3.14787795 85.9248276,3.51937402 85.7582069,3.99146063 C86.0371034,4.02646063 86.228,4.09205118 86.4042759,4.06476772 C87.1612414,3.95315354 87.9331034,4.84138189 87.3891034,5.74504331 C87.2255172,6.01705118 86.9383448,6.24441339 86.6577931,6.40646063 C86.3311724,6.59579134 85.9502069,6.69087008 85.5951724,6.82783858 C84.6754483,7.17838976 83.852,7.65764173 83.2889655,8.50342913 C83.1176552,8.76138189 83.0326897,8.99205118 83.1634483,9.31063386 C83.3675862,9.80146063 83.194069,10.2479173 82.8368276,10.6015 C82.4561379,10.9815394 82.0329655,11.3188622 81.6351724,11.6834685 C81.4547586,11.8485472 81.2489655,12.0067362 81.1314483,12.2134291 C80.3513103,13.5773268 79.5405517,14.9290984 79.0246897,16.4247283 C78.8412414,16.9527598 78.6986207,17.4973268 78.5747586,18.044374 C78.4809655,18.4525236 78.5198621,18.8623268 78.8870345,19.1472874 C79.2834483,19.455122 79.7082759,19.3583898 80.0892414,19.1387441 C80.3750345,18.9736654 80.6605517,18.7609094 80.8597241,18.5048858 C82.0925517,16.9015 83.2724138,15.2609094 84.0953103,13.3965394 C84.9046897,11.5644134 86.0048276,9.93622441 87.5245517,8.61421654 C88.7358621,7.56008268 90.1027586,6.83720866 91.7281379,6.63712992 C93.8246897,6.37669685 95.4382069,8.03299606 95.0793103,10.1037835 C94.9587586,10.7985472 94.7292414,11.4505945 94.3617931,12.0519331 C93.5082759,13.4502795 92.3347586,14.5005551 90.8624828,15.2203976 C89.8492414,15.7142559 88.7984828,15.7952795 87.7118621,15.5265787 C87.6470345,15.5100433 87.5827586,15.4882717 87.517931,15.471185 C86.3921379,15.169689 85.8931034,15.4571299 85.5866207,16.580437 C85.4351724,17.134374 85.3998621,17.6891378 85.5813793,18.2414213 C85.7651034,18.7937047 86.125931,19.1450827 86.7171034,19.2726811 C87.4194483,19.4239803 88.1044138,19.3305551 88.789931,19.1911063 C90.3102069,18.8816181 91.602069,18.1441378 92.7011034,17.0610669 C93.906069,15.8738228 94.962069,14.5730354 95.828,13.1085472 C97.7386207,9.87779921 99.4646897,6.55059449 101.12731,3.18838976 C101.464138,2.50905906 101.80731,1.83027953 101.91131,1.05063386 C101.991034,0.446814961 102.732552,0.0229566929 103.365103,0.135122047 C103.960414,0.240397638 104.415586,0.865988189 104.32069,1.48303543 C104.28869,1.70102756 104.211724,1.91929528 104.119862,2.12157874 C103.541931,3.41272047 102.980828,4.71047638 102.360138,5.98094882 C101.730897,7.27181496 101.03931,8.53401969 100.374207,9.80862598 C100.31269,9.92850787 100.242897,10.0453583 100.192414,10.1674449 C100.063034,10.4730748 99.8216552,10.8172874 100.129241,11.0978386 C100.420552,11.3610276 100.778897,11.1686654 101.071034,11.0129567 C103.111586,9.92216929 104.957931,8.58004331 106.43931,6.78181496 C106.740276,6.41638189 107.065241,6.15098819 107.570069,6.16421654 C108.467724,6.18819291 109.016966,6.97445276 108.668276,7.80232677 C108.549655,8.0845315 108.345241,8.34138189 108.138345,8.57122441 C106.481793,10.4099646 104.546897,11.8945709 102.373931,13.0724449 C102.195448,13.1700039 102.013103,13.2609488 101.841517,13.3653976 C101.301103,13.6903189 101.071034,14.1866575 101.154621,14.7935079 C101.272138,15.658311 101.430207,16.5189803 101.588,17.3766181 C101.63269,17.6166575 101.712414,17.8597283 101.828,18.0730354 C102.127034,18.6300039 102.611724,18.7697283 103.115448,18.3830748 C103.628552,17.9889803 104.143862,17.5637441 104.540276,17.059689 C105.414207,15.9479567 106.213103,14.7777992 107.042897,13.6318937 C108.505517,11.611815 109.937241,9.5661063 111.897517,7.97291732 C113.306897,6.82866535 114.828552,5.89524016 116.619172,5.46614567 C117.394621,5.28067323 118.176414,5.24429528 118.964,5.36087008 C119.484276,5.4388622 119.965379,5.61027953 120.349655,5.99417717 C120.830759,6.47342913 120.890621,7.10067323 120.506069,7.64358661 C120.132276,8.17161811 119.428,8.41165748 118.900828,8.0611063 C118.105517,7.53059449 117.348552,7.74224803 116.593517,8.05008268 C114.861379,8.75587008 113.379724,9.8403189 112.074069,11.1700433 C110.944966,12.3200827 110.002897,13.5982717 109.391034,15.0958307 C109.212552,15.530437 109.052552,15.9821299 108.965931,16.441815 C108.896138,16.807248 108.882621,17.2107126 108.96069,17.5728386 C109.092,18.1805157 109.486207,18.3489016 110.01669,18.026185 C110.474069,17.747563 110.940276,17.4397283 111.298897,17.0494921 C112.484276,15.7619331 113.630207,14.4374449 114.776138,13.1124055 C115.172276,12.6527205 115.505793,12.1406732 115.896414,11.6779567 C116.219448,11.2970906 116.635724,11.0953583 117.156552,11.2552008 C117.652828,11.407878 118.003172,11.7380354 118.033793,12.2522874 C118.052552,12.5639803 117.942207,12.9200433 117.785793,13.1986654 C117.251724,14.1483504 116.841793,15.1385472 116.675448,16.2152795 C116.620828,16.5663819 116.602069,16.9334685 116.63931,17.2870512 C116.684,17.7100827 116.971172,17.8883898 117.360414,17.7194528 C117.682069,17.5791772 118.006483,17.3813031 118.250069,17.1305157 C118.763172,16.5991772 119.271586,16.0499252 119.698345,15.4485866 C120.529793,14.2753976 121.301655,13.0625236 122.100828,11.8672874 C122.211448,11.6983504 122.310207,11.5167362 122.442621,11.3665394 C122.861103,10.8905945 123.517655,10.794689 124.027448,11.1187835 C124.535586,11.442878 124.749931,12.0987835 124.434069,12.660437 C123.165103,14.9164213 121.84069,17.1407126 119.890345,18.8973268 C119.444828,19.2977598 118.930069,19.6466575 118.393793,19.9145315 C117.282069,20.4756339 116.173655,20.371185 115.126483,19.7045315 C114.823586,19.5118937 114.541379,19.286185 114.260828,19.0626811 C113.820552,18.7096496 113.381931,18.6721693 112.900552,18.989374 C112.301655,19.3873268 111.701655,19.7855551 111.076,20.1374843 C110.485931,20.4687441 109.858621,20.7357913 109.156552,20.6790197 C108.134759,20.5971693 107.389931,20.0713425 106.881517,19.1979961 C106.759034,18.9868937 106.65531,18.7664213 106.51269,18.4930354 C106.362897,18.6324843 106.233793,18.7424449 106.117931,18.8623268 C105.694483,19.2969331 105.318759,19.7885866 104.847862,20.1617362 C103.756552,21.0210276 102.525103,21.3668937 101.193793,20.7724449 C99.8321379,20.162563 99.1924138,19.0392559 99.0817931,17.5775236 C99.0464828,17.1103976 98.9813793,16.6418937 98.8950345,16.1800039 C98.8594483,15.9892953 98.754069,15.7999646 98.6415172,15.6348858 C98.3372414,15.1876024 98.0296552,15.1159488 97.6382069,15.4844134 C97.2851034,15.8187047 96.9703448,16.2152795 96.7223448,16.6333504 C96.0009655,17.851185 95.3223448,19.0927205 94.6274483,20.3262638 C94.5388966,20.4825236 94.453931,20.6407126 94.3548966,20.791185 C93.7477241,21.7251614 92.7262069,21.742248 92.1055172,20.8283898 C92.0561379,20.7553583 92.012,20.6790197 91.9507586,20.577878 C91.5444138,20.7382717 91.1535172,20.9016969 90.7573793,21.048311 C89.5466207,21.4914606 88.3052414,21.7852402 87.0081379,21.7866181 C85.3976552,21.7882717 84.1071724,21.2381929 83.3863448,19.7012244 C83.3587586,19.6405945 83.3148966,19.5874055 83.2572414,19.5003189 C83.0310345,19.7690197 82.8558621,19.9966575 82.661931,20.2066575 C81.572,21.399689 80.2442759,22.0602795 78.5998621,21.9574843 C77.1990345,21.8684685 76.1325517,20.8052402 75.9948966,19.4052402 C75.9049655,18.4720906 76.0748966,17.5676024 76.3369655,16.6818543 C76.533931,16.0149252 76.7838621,15.3645315 77.012,14.7077992 C77.0746207,14.5270118 77.1408276,14.3470512 77.236,14.0728386 C76.4966897,14.2200039 75.9033103,14.4459882 75.4917241,14.9889016 C75.2486897,15.3099646 75.0412414,15.6605157 74.853931,16.0165787 C73.6282759,18.3497283 71.9074483,20.2496496 69.7717241,21.7742165 C69.3366897,22.0842559 68.8434483,22.3320118 68.3452414,22.5252008 C66.4784828,23.2483504 64.6707586,22.4006339 63.997931,20.5144921 C63.9245517,20.3102795 63.8633103,20.1016575 63.7697931,19.8133898 C63.5794483,20.0316575 63.437931,20.197563 63.2936552,20.3563031 C62.7493793,20.955437 62.2445517,21.5950827 61.6544828,22.1451614 C60.4842759,23.2387047 58.8917241,23.4561457 57.6006897,22.7324449 C56.4514483,22.0867362 55.8886897,21.0598858 55.7662069,19.7681929 C55.7217931,19.2999646 55.6986207,18.8265 55.6015172,18.3676417 C55.5129655,17.9492953 55.349931,17.4934685 54.8886897,17.3790984 C54.4332414,17.2669331 54.157931,17.6618543 53.9044138,17.9672087 C53.6765517,18.2397677 53.4928276,18.5544921 53.3143448,18.8645315 C52.589931,20.1319724 51.8828966,21.4096102 51.1565517,22.6770512 C50.6277241,23.597248 50.1653793,23.7350433 49.1485517,23.3541772 C48.98,23.2918937 48.7645517,23.3376417 48.5722759,23.3580354 C48.106069,23.4103976 47.6404138,23.5324843 47.1744828,23.5247677 C46.2172414,23.5090591 45.4453793,23.0923661 44.8977931,22.2915 C44.7993103,22.1473661 44.7057931,22.0002008 44.5747586,21.8009488 C44.3537931,22.0126024 44.1766897,22.2151614 43.9695172,22.3750039 C43.3811034,22.8220118 42.8216552,23.3268937 42.1772414,23.6719331 C41.0569655,24.2680354 39.9193103,24.1533898 38.8533793,23.4624843 C38.5711724,23.2800433 38.3107586,23.062878 38.0404138,22.8611457 C37.4773793,22.4419724 37.2244138,22.4215787 36.6310345,22.786185 C36.0373793,23.1491378 35.4644138,23.5512244 34.8591724,23.8932323 C34.250069,24.2382717 33.6062069,24.5174449 32.8782069,24.4510276 C31.7971034,24.3529173 31.0522759,23.7623268 30.5521379,22.8291772 C30.4382069,22.6180748 30.3413793,22.3967756 30.2288276,22.1677598 C29.6004138,22.7239016 29.0205517,23.2527598 28.42,23.756815 C27.8230345,24.2586654 27.124,24.5546496 26.356,24.6916181 C24.9242759,24.9465394 23.9328276,24.2787835 23.6404138,22.8586654 C23.4737931,22.0492559 23.5791724,21.2445315 23.7132414,20.4491772 C23.9651034,18.9582323 24.4511724,17.5370118 25.082069,16.1629173 C26.1824828,13.7705157 27.5546207,11.5269331 28.8464828,9.23898031 C29.6848276,7.75409843 30.4346207,6.22016142 31.234069,4.71350787 C31.38,4.43929528 31.5416552,4.15957087 31.7543448,3.9368937 C32.1350345,3.53646063 32.6710345,3.46646063 33.1113103,3.70153937 C33.548,3.93606693 33.8373793,4.44232677 33.7488276,4.93783858 C33.6892414,5.26358661 33.5753103,5.59236614 33.4241379,5.88835039 C32.9325517,6.84795669 32.4194483,7.79543701 31.9057931,8.74264173 C30.3871724,11.5481535 28.8282759,14.3307913 27.3637241,17.163311 C26.7606897,18.3334685 26.3438621,19.6031142 25.8815172,20.8427205 C25.7692414,21.1431142 25.7606897,21.5102008 25.7982069,21.8342953 C25.8506207,22.2829567 26.1855172,22.414689 26.5888276,22.162248 C26.8710345,21.9839409 27.1311724,21.7609882 27.3742069,21.5303189 C28.8688276,20.1157126 30.044,18.4439803 31.2373793,16.7816181 C32.5449655,14.9585866 33.8917241,13.1581535 35.6633103,11.7358307 C37.0969655,10.5827598 38.6373793,9.63004331 40.4566897,9.22409843 C41.3662069,9.02098819 42.2895172,8.96394094 43.1891034,9.26157874 C43.5187586,9.3707126 43.8470345,9.56059449 44.1071724,9.79291732 C44.6086897,10.239374 44.6393103,10.899689 44.2484138,11.4348858 C43.8674483,11.9568543 43.1667586,12.1798071 42.6365517,11.8276024 C41.8903448,11.3337441 41.173931,11.506815 40.4531034,11.7840591 C39.1184828,12.298311 37.9281379,13.0625236 36.8484138,13.9934685 C35.2641379,15.3612244 33.9325517,16.9301614 33.1402759,18.890437 C32.914069,19.4474055 32.7932414,20.0479173 32.6605517,20.6354764 C32.6131034,20.845752 32.642069,21.0888228 32.6925517,21.3029567 C32.8456552,21.9409488 33.2318621,22.1302795 33.7863448,21.7921299 C34.2434483,21.5132323 34.706069,21.2015394 35.0649655,20.8113031 C36.2343448,19.5391772 37.3686897,18.2337047 38.4977931,16.925752 C38.9091034,16.4498071 39.2525517,15.9176417 39.6624828,15.4392165 C39.9871724,15.0597283 40.4075862,14.8643346 40.925931,15.035752 C41.4202759,15.1977992 41.765931,15.5329173 41.7896552,16.0452402 C41.8034483,16.3577598 41.6845517,16.7105157 41.5281379,16.9902402 C40.9937931,17.9399252 40.5943448,18.9331535 40.4211034,20.0082323 C40.3714483,20.3166181 40.3513103,20.6368543 40.3750345,20.9477205 C40.4172414,21.5132323 40.7388966,21.6970512 41.253931,21.4377205 C41.549931,21.2880748 41.8321379,21.0841378 42.0668966,20.8496102 C42.4630345,20.4524843 42.8506207,20.0377205 43.181931,19.5882323 C44.1822069,18.2337047 45.1187586,16.8452795 45.882069,15.3287047 C46.7510345,13.6062638 47.7816552,11.9648465 48.7353103,10.285122 C48.9052414,9.98445276 49.052,9.66890157 49.2486897,9.2803189 C48.5551724,9.25303543 48.1488276,9.00445276 48.0605517,8.39209055 C47.9717241,7.77283858 48.2084138,7.27264173 48.8208276,6.94716929 C49.1742069,6.76004331 49.5653793,6.62996457 49.9548966,6.53102756 C50.6329655,6.35823228 51.1242759,5.96716929 51.4302069,5.35094882 C51.7091034,4.78929528 51.9695172,4.21744488 52.2142069,3.64090945 C52.4798621,3.01449213 52.9507586,2.69342913 53.5675862,2.75984646 C54.3598621,2.84252362 54.8398621,3.55051575 54.6086897,4.30921654 C54.5303448,4.56716929 54.4125517,4.81244488 54.3344828,5.07039764 C54.2906207,5.21122441 54.2906207,5.36555512 54.2597241,5.59319291 C54.5267586,5.60559449 54.7411034,5.6141378 54.9551724,5.6257126 C55.7035862,5.66401969 56.1623448,6.33398031 55.925931,7.05079134 C55.7935172,7.45342913 55.5402759,7.76126378 55.1474483,7.93323228 C54.8398621,8.06799606 54.5284138,8.2011063 54.2086897,8.30638189 C52.9402759,8.72941339 51.9711724,9.47653937 51.3248276,10.6825236 C50.4746207,12.2660669 49.4906207,13.7768543 48.6691034,15.372248 C48.0177931,16.6410669 47.2950345,17.8985866 47.0470345,19.3382717 C47.0384828,19.3809882 47.0213793,19.4239803 47.0131034,19.4683504 C46.9245517,19.9514606 46.8958621,20.4312638 47.3697931,20.7404764 C47.8070345,21.0240591 48.2542069,20.8782717 48.6371034,20.623626 C48.9295172,20.4282323 49.2147586,20.1779961 49.410069,19.8913819 C50.4784828,18.3348465 51.6244138,16.8196496 52.5441379,15.1790591 C54.3554483,11.948311 56.0481379,8.65004331 57.7642759,5.36555512 C58.1350345,4.65590945 58.4851034,3.92972835 58.6004138,3.10488583 C58.685931,2.50272047 59.42,2.12709055 60.0851034,2.24724803 C60.6544828,2.35004331 61.0834483,2.9453189 61.0051034,3.55051575 C60.9775172,3.74673622 60.9165517,3.94543701 60.8332414,4.12870472 C60.2365517,5.45980709 59.6597241,6.80000394 59.0188966,8.11016142 C58.3612414,9.46165748 57.6329655,10.7814606 56.9466207,12.1197283 C56.778069,12.4493346 56.4735172,12.8395709 56.7948966,13.1713819 C57.1521379,13.540122 57.5634483,13.2033504 57.8983448,13.0220118 C59.8897931,11.9397677 61.6969655,10.6185866 63.1388966,8.84626378 C63.4942069,8.41000394 63.9038621,8.16390157 64.4806897,8.28075197 C65.2470345,8.43342913 65.6555862,9.13067323 65.3612414,9.85740551 C65.2470345,10.140437 65.0484138,10.4027992 64.8426207,10.6326417 C63.1590345,12.5094134 61.1866207,14.0174449 58.9681379,15.2110276 C58.7314483,15.337248 58.4851034,15.4626417 58.2826207,15.6362638 C57.8931034,15.9666969 57.7623448,16.4170118 57.8371034,16.9130748 C57.9651034,17.7544528 58.106069,18.5941772 58.2605517,19.4311457 C58.3049655,19.672563 58.3777931,19.916185 58.4906207,20.1319724 C58.7926897,20.7187047 59.285931,20.8556732 59.818069,20.459374 C60.2652414,20.1272874 60.6988966,19.7541378 61.0641379,19.3352402 C61.610069,18.7104764 62.1237241,18.0512638 62.5929655,17.3664213 C63.6354483,15.8498465 64.6453793,14.312878 65.6586207,12.7764606 C66.8594483,10.9542559 68.2823448,9.35583071 70.1593103,8.1980748 C70.4056552,8.04457087 70.6304828,7.85468898 70.8633103,7.67775984 C72.3052414,6.58779921 74.5275862,6.75701181 75.4462069,8.78701181 C75.7314483,9.41756299 75.9151724,10.0944134 76.1278621,10.7558307 C76.4150345,11.6578386 76.4914483,11.7008307 77.3518621,11.3353976 C79.2955862,10.5149646 79.7187586,10.1084685 80.6183448,8.18980709 C80.6795862,8.05779921 80.7,7.90457087 80.7507586,7.71358661" id="Fill-1"></path>
                    <path d="M9.25486897,34.6049409 C7.95611034,34.6250591 6.70093793,34.3976969 5.50397241,33.8983268 C2.89266207,32.807815 1.15142069,30.9318701 0.455696552,28.1575 C-0.361958621,24.9005709 0.1768,21.9090354 2.34783448,19.3000197 C4.03004138,17.2815945 6.23362759,16.293878 8.86038621,16.3181299 C9.48107586,16.3241929 10.1199724,16.433878 10.7152828,16.6149409 C13.2201103,17.3689567 14.634731,19.7379331 14.170731,22.3400591 C14.1111448,22.6702165 14.0294897,22.9989961 13.9257655,23.3175787 C13.8099034,23.6741929 13.5701793,23.9337992 13.214869,24.0817913 C12.5296276,24.3645472 11.9158345,24.0975 11.7610759,23.3713189 C11.6689379,22.9405709 11.7235586,22.4800591 11.6882483,22.0344291 C11.6488,21.5460827 11.6405241,21.0428543 11.514731,20.5737992 C11.2766621,19.7045866 10.6744552,19.1591929 9.78507586,18.9580118 C8.1905931,18.5950591 6.70093793,18.8125 5.37293793,19.8134449 C2.51666207,21.9613976 1.76135172,26.2451772 3.68107586,29.2584843 C4.82728276,31.0589173 6.51748966,31.9319882 8.57652414,32.0496654 C12.2816276,32.2624213 15.2110069,30.7629331 17.3842483,27.7851772 C18.0592828,26.8605709 18.6692138,25.8891142 18.9823172,24.7636024 C19.6968,22.1879331 19.1558345,19.9140354 17.3194207,17.9780118 C16.5014897,17.115689 15.5919724,16.3390748 14.7519724,15.4938386 C14.2962483,15.0349803 13.8540414,14.5458071 13.4838345,14.0152953 C12.1456276,12.0996654 12.0195586,10.0506496 12.9751448,7.94568898 C14.4510069,4.69647638 18.5216276,3.07159449 21.7301793,4.41840551 C22.7489379,4.84694882 23.5916966,5.50340551 24.2261793,6.40872047 C25.9111448,8.81297244 24.5919724,12.3154528 21.7522483,12.9556496 C20.9089379,13.1474606 20.0518345,13.1036417 19.2151448,12.8737992 C19.0043862,12.8162008 18.7936276,12.705689 18.6201103,12.571752 C18.2088,12.2490354 18.074731,11.7965157 18.2002483,11.304311 C18.322731,10.8297441 18.6681103,10.5257677 19.1610759,10.4808465 C19.490731,10.4480512 19.8292138,10.5056496 20.1638345,10.5321063 C20.4532138,10.5533268 20.7475586,10.6335236 21.0314207,10.6032087 C21.2863172,10.5759252 21.5685241,10.483878 21.7690759,10.3312008 C22.6209379,9.68218504 22.6755586,8.36954724 21.9379034,7.5921063 C20.4890759,6.06753937 17.2943172,6.14773622 15.9762483,7.91785433 C14.6976276,9.63478346 14.634731,11.3908465 16.0101793,13.0204134 C16.6871448,13.8218307 17.4741793,14.5433268 18.2835586,15.2149409 C19.5809379,16.2883661 20.5092138,17.6136811 21.2099034,19.1170276 C21.5652138,19.8773819 21.7031448,20.6914764 21.7729379,21.5281693 C22.2165241,26.863878 18.3599724,31.7591929 13.838869,33.6467126 C12.3701793,34.2604528 10.854869,34.6297441 9.25486897,34.6049409" id="Fill-3"></path>
                </g>
                <g id="Group-10" transform="translate(121.655172, 3.752441)">
                    <path d="M3.22576552,3.1086063 C3.60507586,3.1086063 3.84645517,2.89612598 3.84645517,2.56789764 L3.84645517,2.55852756 C3.84645517,2.21183465 3.61362759,2.02222835 3.22107586,2.02222835 L2.44948966,2.02222835 L2.44948966,3.1086063 L3.22576552,3.1086063 Z M1.91928276,1.79100787 C1.91928276,1.62923622 2.03569655,1.5043937 2.18631724,1.5043937 L3.26438621,1.5043937 C3.64397241,1.5043937 3.94135172,1.62482677 4.13555862,1.8282126 C4.2950069,2.00376378 4.38548966,2.24407874 4.38548966,2.52628346 L4.38548966,2.53537795 C4.38548966,3.0532126 4.10521379,3.36738583 3.69997241,3.50159843 L4.27762759,4.28289764 C4.32948966,4.35207087 4.36397241,4.41214961 4.36397241,4.50006299 C4.36397241,4.6574252 4.2390069,4.76352756 4.10962759,4.76352756 C3.9888,4.76352756 3.9110069,4.70372441 3.85086897,4.61581102 L3.11762759,3.61266142 L2.44948966,3.61266142 L2.44948966,4.48159843 C2.44948966,4.63868504 2.33307586,4.76352756 2.18631724,4.76352756 C2.03569655,4.76352756 1.91928276,4.63868504 1.91928276,4.48159843 L1.91928276,1.79100787 Z" id="Fill-6" fill="#020303"></path>
                    <path d="M3.08485517,0.37653937 C1.56154483,0.37653937 0.32182069,1.61476772 0.32182069,3.13685433 C0.32182069,4.65894094 1.56154483,5.89716929 3.08485517,5.89716929 C4.60816552,5.89716929 5.84788966,4.65894094 5.84788966,3.13685433 C5.84788966,1.61476772 4.60816552,0.37653937 3.08485517,0.37653937 M3.08485517,6.19287795 C1.39795862,6.19287795 0.0255448276,4.82209055 0.0255448276,3.13685433 C0.0255448276,1.45161811 1.39795862,0.0808307087 3.08485517,0.0808307087 C4.77147586,0.0808307087 6.14388966,1.45161811 6.14388966,3.13685433 C6.14388966,4.82209055 4.77147586,6.19287795 3.08485517,6.19287795" id="Fill-8" fill="#000000"></path>
                </g>
            </g>
        </g>
    </g>
</svg>