<?xml version="1.0" encoding="UTF-8"?>
<svg width="15px" height="14px" viewBox="0 0 15 14" version="1.1" xmlns="http://www.w3.org/2000/svg" xmlns:xlink="http://www.w3.org/1999/xlink">
    <!-- Generator: sketchtool 64 (101010) - https://sketch.com -->
    <title>8E652B72-BAFF-45FD-A7F6-2298AE83E742</title>
    <desc>Created with sketchtool.</desc>
    <defs>
        <path d="M6.23723418,13.1073959 C6.50092345,13.3842619 6.80517573,13.5226928 7.15000015,13.5226928 C7.49482458,13.5226928 7.79907686,13.3842619 8.06276613,13.1073959 C8.3264554,12.83053 8.45829806,12.511074 8.45829806,12.1490185 C8.45829806,11.786963 8.3264554,11.467507 8.06276613,11.190641 C7.79907686,10.9137751 7.49482458,10.7753441 7.15000015,10.7753441 C6.80517573,10.7753441 6.50092345,10.9137751 6.23723418,11.190641 C5.97354491,11.467507 5.84170225,11.786963 5.84170225,12.1490185 C5.84170225,12.511074 5.97354491,12.83053 6.23723418,13.1073959 Z M5.20276607,8.05994139 L9.09723424,8.05994139 L7.15000015,5.05702539 L5.20276607,8.05994139 Z M10.5272343,8.05994139 L13.6306386,8.05994139 C13.8131927,8.05994139 13.9703897,8.12383258 14.1022343,8.25161687 C14.234079,8.37940117 14.3000003,8.53912915 14.3000003,8.7308056 C14.0971624,9.58270092 13.7929101,10.7806607 13.3872343,12.324721 C12.9815585,13.8687813 12.728015,14.843122 12.626596,15.2477722 C12.4440419,15.9079911 12.0282305,16.2380956 11.3791492,16.2380956 L2.92085113,16.2380956 C2.27176985,16.2380956 1.8559584,15.9079911 1.67340429,15.2477722 L0.0304255326,8.92248109 C0.0101417428,8.87988632 0,8.81599513 0,8.7308056 C0,8.53912915 0.065921328,8.37940117 0.197765962,8.25161687 C0.329610595,8.12383258 0.486807608,8.05994139 0.669361717,8.05994139 L3.77276604,8.05994139 L6.60234057,3.58751331 C6.72404331,3.39583686 6.90659468,3.30000007 7.15000015,3.30000007 C7.39340563,3.30000007 7.575957,3.39583686 7.69765974,3.58751331 L10.5272343,8.05994139 Z" id="path-1"></path>
    </defs>
    <g id="Homepage" stroke="none" stroke-width="1" fill="none" fill-rule="evenodd">
        <g id="Slatkoteka-Lokacije" transform="translate(-1250.000000, -27.000000)">
            <g id="Group-41">
                <g id="Group-40">
                    <g id="Group-15" transform="translate(1167.000000, 24.000000)">
                        <g id="Group-32" transform="translate(83.600002, 0.000000)">
                            <g id="Group-31">
                                <g id="Group-29">
                                    <mask id="mask-2" fill="white">
                                        <use xlink:href="#path-1"></use>
                                    </mask>
                                    <use id="🎨-icon-fill" fill="#000000" xlink:href="#path-1"></use>
                                </g>
                            </g>
                        </g>
                    </g>
                </g>
            </g>
        </g>
    </g>
</svg>