<?xml version="1.0" encoding="UTF-8"?>
<svg width="176px" height="48px" viewBox="0 0 176 48" version="1.1" xmlns="http://www.w3.org/2000/svg" xmlns:xlink="http://www.w3.org/1999/xlink">
    <!-- Generator: sketchtool 64 (101010) - https://sketch.com -->
    <title>67139673-5D90-48B8-B0D7-CDDC5F83C6B2</title>
    <desc>Created with sketchtool.</desc>
    <g id="Homepage" stroke="none" stroke-width="1" fill="none" fill-rule="evenodd">
        <g id="Slatkoteka-Lokacije" transform="translate(-139.000000, -3434.000000)">
            <g id="Group" transform="translate(-277.000000, 2218.000000)">
                <g id="Group-11" transform="translate(416.000000, 1216.000000)">
                    <g id="Group-5" fill="#ED589D">
                        <path d="M100.909105,15.1144 C100.861815,14.8934476 100.820579,14.5555429 100.715406,14.2389714 C100.509979,13.6206857 100.250831,13.4614476 99.6144989,13.5174476 C99.0572356,13.5669714 98.6142246,13.7898286 98.4110675,14.3585905 C98.2128285,14.9170667 98.3486449,15.3978286 98.7799281,15.778781 C99.02924,15.9997333 99.2970896,16.2191619 99.595583,16.354781 C100.292824,16.6705905 100.705948,16.4389714 100.859924,15.6915429 C100.890189,15.5418286 100.887541,15.3844952 100.909105,15.1144 M121.958373,18.2126857 C122.151694,18.1875429 122.342744,18.1898286 122.517906,18.138019 C124.451114,17.5631619 125.906127,16.3982095 126.738428,14.5342095 C126.971851,14.0149714 127.265426,13.3784 126.754317,12.8766857 C126.253424,12.3814476 125.57699,12.4945905 125.019348,12.7776381 C124.120085,13.2385905 123.217417,13.7284952 122.41576,14.338019 C121.762404,14.8366857 121.200601,15.4881143 120.69668,16.1479238 C120.039163,17.0054476 120.377758,17.8378286 121.421917,18.122019 C121.598592,18.1696381 121.78359,18.1833524 121.958373,18.2126857 M90.8893374,25.8077333 C90.8893374,26.1178286 90.8605852,26.4302095 90.8961471,26.738019 C90.9982931,27.6724952 91.5351272,28.0751619 92.4256892,27.8115429 C92.9477688,27.6564952 93.4796847,27.4294476 93.9230741,27.1182095 C95.8301781,25.7753524 97.4879701,24.1719238 98.77501,22.2001143 C98.8756427,22.0462095 98.9713573,21.8846857 99.048156,21.7166857 C99.467333,20.8271619 99.2395852,20.1844952 98.3966914,19.6934476 C97.8144591,19.3551619 97.252656,18.9749714 96.7112821,18.5711619 C96.3431781,18.2953524 96.0348485,17.9391619 95.687552,17.6332571 C95.1749303,17.1829714 94.8223374,17.178781 94.3025277,17.6126857 C94.139094,17.7517333 93.9949546,17.9174476 93.8527069,18.0778286 C91.907771,20.282019 91.0474746,22.9117333 90.8893374,25.8077333 M110.741983,10.6625905 C109.881309,10.6313524 109.324802,10.2964952 109.214711,9.43935238 C109.107647,8.59173333 109.440946,7.88849524 110.275517,7.44811429 C110.763169,7.19173333 111.299625,7.00773333 111.833433,6.87554286 C112.735722,6.65230476 113.386052,6.12925714 113.804094,5.31592381 C114.183548,4.57420952 114.486959,3.79211429 114.871709,3.05230476 C115.079406,2.65078095 115.324178,2.22754286 115.659747,1.94868571 C116.22382,1.47935238 117.064065,1.55020952 117.6323,2.00049524 C118.217937,2.46030476 118.425634,3.1064 118.197129,3.82792381 C118.031426,4.35135238 117.837727,4.86487619 117.609222,5.51744762 C117.991702,5.56582857 118.253499,5.65649524 118.495244,5.61878095 C119.533351,5.46449524 120.591886,6.69230476 119.845842,7.94144762 C119.621499,8.31744762 119.227669,8.63173333 118.842919,8.85573333 C118.39499,9.11744762 117.872532,9.24887619 117.385636,9.43820952 C116.124322,9.92278095 114.995041,10.5852571 114.222893,11.7544 C113.987957,12.1109714 113.871435,12.4298286 114.050758,12.8702095 C114.330713,13.5486857 114.092751,14.1658286 113.602829,14.6545905 C113.080749,15.1799238 112.500408,15.6462095 111.954873,16.1502095 C111.707452,16.3784 111.425227,16.5970667 111.264063,16.882781 C110.194178,18.7681143 109.0823,20.6366857 108.374844,22.7041143 C108.123262,23.434019 107.927671,24.186781 107.757806,24.9429714 C107.629178,25.5071619 107.682521,26.0736381 108.186063,26.4675429 C108.729707,26.8930667 109.312317,26.7593524 109.834775,26.4557333 C110.226713,26.2275429 110.618273,25.9334476 110.891419,25.5795429 C112.582125,23.3631619 114.200194,21.0953524 115.328718,18.5182095 C116.438705,15.9856381 117.947439,13.7349714 120.031596,11.9075429 C121.692793,10.4504 123.567362,9.4511619 125.796415,9.17459048 C128.671636,8.81459048 130.884421,11.1041143 130.392229,13.9665905 C130.226904,14.9269714 129.912143,15.8283048 129.408222,16.6595429 C128.237705,18.5924952 126.628337,20.0443048 124.609251,21.0393524 C123.219687,21.722019 121.778671,21.834019 120.288475,21.4625905 C120.19957,21.4397333 120.111421,21.4096381 120.022517,21.386019 C118.478598,20.9692571 117.79422,21.3665905 117.373908,22.9193524 C117.166211,23.6850667 117.117787,24.4519238 117.36672,25.2153524 C117.61868,25.978781 118.113521,26.4644952 118.924258,26.6408762 C119.887457,26.850019 120.826822,26.7208762 121.766944,26.5281143 C123.851857,26.1003048 125.623523,25.0808762 127.130744,23.5837333 C128.78324,21.9425905 130.231444,20.1444952 131.418986,18.1201143 C134.03922,13.6542095 136.40636,9.05497143 138.686486,4.40735238 C139.148413,3.46830476 139.619041,2.53001905 139.761667,1.45230476 C139.871001,0.617638095 140.887921,0.0317333333 141.755406,0.186780952 C142.571817,0.332304762 143.196043,1.19706667 143.065902,2.05001905 C143.022017,2.35135238 142.916466,2.65306667 142.790486,2.93268571 C141.997908,4.71744762 141.228408,6.51135238 140.377191,8.26754286 C139.514247,10.0519238 138.565802,11.7966857 137.653676,13.5585905 C137.569311,13.7243048 137.473596,13.8858286 137.404364,14.0545905 C137.226933,14.4770667 136.895904,14.9528762 137.317729,15.3406857 C137.717233,15.7044952 138.208669,15.4385905 138.609309,15.2233524 C141.407731,13.7155429 143.939817,11.8603048 145.971388,9.37459048 C146.384134,8.86944762 146.829793,8.50259048 147.522116,8.52087619 C148.753165,8.55401905 149.506397,9.64087619 149.028202,10.7852571 C148.865525,11.1753524 148.585191,11.5304 148.301452,11.8481143 C146.029649,14.3898286 143.376123,16.442019 140.396107,18.0702095 C140.151335,18.2050667 139.901267,18.330781 139.665952,18.4751619 C138.924826,18.9243048 138.609309,19.6104 138.723939,20.4492571 C138.885103,21.6446857 139.101879,22.8344 139.318278,24.0199238 C139.379565,24.3517333 139.488899,24.6877333 139.647415,24.9825905 C140.057512,25.7524952 140.722218,25.9456381 141.413028,25.4111619 C142.1167,24.8664 142.823399,24.2785905 143.367043,23.5818286 C144.565556,22.0450667 145.661167,20.4275429 146.799149,18.8435429 C148.804994,16.0511619 150.768468,13.2233524 153.4568,11.0210667 C155.389629,9.43935238 157.476435,8.14906667 159.932101,7.55592381 C160.995554,7.29954286 162.067709,7.24925714 163.147809,7.4104 C163.861317,7.51820952 164.521105,7.7551619 165.048103,8.28582857 C165.70789,8.94830476 165.789986,9.81535238 165.26261,10.5658286 C164.749988,11.2957333 163.78414,11.6275429 163.061174,11.1429714 C161.970481,10.4096381 160.932375,10.7022095 159.896917,11.1277333 C157.521455,12.1033524 155.489506,13.6024 153.698924,15.4404952 C152.150466,17.0302095 150.858508,18.7970667 150.019397,20.8671619 C149.774625,21.4679238 149.5552,22.0923048 149.436408,22.7277333 C149.340694,23.2328762 149.322156,23.7905905 149.42922,24.2911619 C149.6093,25.1311619 150.149917,25.3639238 150.877424,24.9178286 C151.504676,24.5326857 152.144034,24.1071619 152.635848,23.5677333 C154.261483,21.7879238 155.833019,19.9570667 157.404554,18.1254476 C157.94782,17.490019 158.405207,16.7822095 158.940906,16.1425905 C159.383917,15.6161143 159.9548,15.3372571 160.669065,15.5582095 C161.34966,15.7692571 161.830125,16.2256381 161.872118,16.9364952 C161.897844,17.3673524 161.746517,17.8595429 161.53201,18.2446857 C160.799585,19.5574476 160.237404,20.9262095 160.009278,22.4145905 C159.934371,22.8999238 159.908645,23.4073524 159.959718,23.8961143 C160.021006,24.4808762 160.414835,24.7273524 160.948643,24.4938286 C161.389762,24.2999238 161.834665,24.0264 162.16872,23.6797333 C162.872393,22.9452571 163.569634,22.186019 164.154893,21.354781 C165.295145,19.7330667 166.35368,18.0564952 167.449669,16.4043048 C167.601375,16.170781 167.736813,15.9197333 167.918406,15.7121143 C168.492315,15.0542095 169.392713,14.9216381 170.091846,15.3696381 C170.788709,15.8176381 171.082663,16.7243048 170.649488,17.5006857 C168.909222,20.6191619 167.092915,23.6938286 164.418202,26.122019 C163.807218,26.6755429 163.101275,27.1578286 162.365824,27.5281143 C160.8412,28.3037333 159.321116,28.1593524 157.885019,27.2378286 C157.469625,26.9715429 157.082605,26.6595429 156.697855,26.3505905 C156.094059,25.8625905 155.492532,25.810781 154.832366,26.2492571 C154.011037,26.7993524 153.188194,27.3498286 152.330167,27.8363048 C151.520944,28.2942095 150.660647,28.6633524 149.697826,28.5848762 C148.296534,28.4717333 147.275074,27.7448762 146.577833,26.5376381 C146.40986,26.2458286 146.267612,25.9410667 146.072021,25.5631619 C145.866594,25.7559238 145.689541,25.9079238 145.530647,26.0736381 C144.949928,26.6744 144.434658,27.354019 143.788868,27.8698286 C142.29224,29.0576381 140.603426,29.5357333 138.77766,28.714019 C136.91028,27.8709714 136.032959,26.3182095 135.881253,24.2976381 C135.832829,23.6519238 135.743545,23.0043048 135.625132,22.3658286 C135.576329,22.1022095 135.431811,21.8404952 135.277457,21.6123048 C134.860171,20.994019 134.438346,20.8949714 133.901512,21.4043048 C133.417264,21.8664 132.985603,22.4145905 132.645494,22.9924952 C131.656191,24.6759238 130.725528,26.3921143 129.772543,28.0972571 C129.651103,28.3132571 129.534581,28.5319238 129.398764,28.7399238 C128.566085,30.0309714 127.165171,30.0545905 126.313955,28.7913524 C126.246236,28.6904 126.185705,28.5848762 126.101718,28.4450667 C125.544455,28.666781 125.008377,28.8926857 124.465112,29.0953524 C122.804671,29.7079238 121.102238,30.114019 119.323384,30.1159238 C117.11476,30.1182095 115.344986,29.3578286 114.356439,27.2332571 C114.318607,27.1494476 114.258455,27.0759238 114.179386,26.9555429 C113.869165,27.3269714 113.628933,27.6416381 113.362975,27.9319238 C111.868238,29.5810667 110.04739,30.4942095 107.792233,30.3521143 C105.871132,30.2290667 104.408552,28.7593524 104.219771,26.8241143 C104.096439,25.5342095 104.329483,24.2839238 104.688886,23.0595429 C104.959006,22.1376381 105.301762,21.2385905 105.614632,20.330781 C105.70051,20.0808762 105.791306,19.8321143 105.921826,19.4530667 C104.907933,19.6564952 104.094169,19.9688762 103.529718,20.7193524 C103.196419,21.1631619 102.911924,21.6477333 102.655045,22.1399238 C100.974176,25.3650667 98.6142246,27.9913524 95.6852821,30.098781 C95.0886737,30.5273524 94.41224,30.8698286 93.7289967,31.1368762 C91.1689148,32.1364952 88.6897931,30.9646857 87.7670741,28.3574476 C87.6664414,28.0751619 87.5824546,27.786781 87.4542046,27.3883048 C87.1931648,27.690019 86.9990874,27.9193524 86.8012268,28.138781 C86.0548042,28.9669714 85.3624812,29.8511619 84.5532577,30.6115429 C82.9484303,32.1231619 80.7643971,32.4237333 78.9938662,31.4233524 C77.4177909,30.530781 76.646021,29.1113524 76.4780476,27.3258286 C76.4171383,26.6785905 76.3853595,26.0241143 76.2521914,25.3898286 C76.1307511,24.8115429 75.9071648,24.1814476 75.2746162,24.0233524 C74.6500122,23.8683048 74.2724502,24.4142095 73.9247754,24.8363048 C73.6122843,25.2130667 73.3603241,25.6481143 73.115552,26.0766857 C72.1220874,27.8286857 71.1524569,29.594781 70.156344,31.346781 C69.4311073,32.618781 68.7970454,32.8092571 67.4025631,32.282781 C67.1714104,32.1966857 66.8759436,32.2599238 66.6122555,32.2881143 C65.9728971,32.3604952 65.3342954,32.5292571 64.6953153,32.5185905 C63.3825498,32.4968762 62.3240144,31.9208762 61.573052,30.8138286 C61.4379923,30.6145905 61.3097423,30.4111619 61.1300409,30.1357333 C60.8270077,30.4283048 60.5841272,30.7083048 60.30001,30.9292571 C59.4930564,31.5471619 58.7258263,32.2450667 57.8420741,32.722019 C56.3057223,33.546019 54.7455365,33.3875429 53.2837135,32.4324952 C52.8966936,32.1803048 52.5395608,31.8801143 52.1688086,31.6012571 C51.3966604,31.0218286 51.0497423,30.9936381 50.235979,31.4976381 C49.4218374,31.9993524 48.6360697,32.5551619 47.8060387,33.0279238 C46.9707113,33.5048762 46.0877157,33.890781 45.089333,33.7989714 C43.6067024,33.6633524 42.5852423,32.8469714 41.8993507,31.5570667 C41.7431051,31.2652571 41.6103153,30.9593524 41.4559613,30.642781 C40.5941515,31.4115429 39.7989259,32.1425905 38.9753263,32.8393524 C38.1566449,33.5330667 37.1979856,33.9422095 36.1447467,34.1315429 C34.1812732,34.4839238 32.8215962,33.5608762 32.4205785,31.5978286 C32.1920741,30.4789714 32.3365918,29.3665905 32.5204546,28.2671619 C32.8658595,26.2062095 33.5324569,24.2416381 34.3976715,22.3422095 C35.9067843,19.0351619 37.7885409,15.9338286 39.5602069,12.7711619 C40.709917,10.7185905 41.7381869,8.59820952 42.8345542,6.51554286 C43.0346847,6.13649524 43.2563794,5.74982857 43.5480631,5.44201905 C44.0701427,4.88849524 44.8052157,4.79173333 45.4090122,5.11668571 C46.0078905,5.44087619 46.4047467,6.14068571 46.2833064,6.8256381 C46.2015896,7.27592381 46.045344,7.7304 45.8380254,8.13954286 C45.1638617,9.46601905 44.4601892,10.7757333 43.75576,12.0850667 C41.6731162,15.9631619 39.5352378,19.8096381 37.5267445,23.7250667 C36.69974,25.3425905 36.1281007,27.0976381 35.4940387,28.8111619 C35.3400631,29.2264 35.3283352,29.7338286 35.3797865,30.1818286 C35.451667,30.802019 35.9109458,30.9841143 36.4640476,30.6351619 C36.8510675,30.3886857 37.2078219,30.0804952 37.5411206,29.7616381 C39.5908507,27.8062095 41.2024878,25.4953524 42.839094,23.1974476 C44.6323241,20.6774476 46.4792754,18.1886857 48.9088374,16.2225905 C50.8749591,14.6286857 52.98749,13.3117333 55.4825011,12.7505905 C56.7298175,12.4698286 57.9960498,12.3909714 59.2297467,12.8024 C59.6818374,12.9532571 60.1320365,13.2157333 60.4887909,13.5368762 C61.1765741,14.154019 61.2185675,15.066781 60.68249,15.8065905 C60.1600321,16.5281143 59.1991029,16.8363048 58.4719746,16.3494476 C57.4486228,15.666781 56.4661294,15.906019 55.477583,16.2892571 C53.6472777,17.0001143 52.014833,18.0564952 50.534094,19.3433524 C48.3614104,21.234019 46.5352666,23.402781 45.4487356,26.1124952 C45.1385144,26.8824 44.9728108,27.7124952 44.7908396,28.5246857 C44.7257688,28.8153524 44.7654923,29.1513524 44.8347246,29.4473524 C45.0446914,30.3292571 45.5743374,30.5909714 46.3347577,30.1235429 C46.9616316,29.738019 47.5960719,29.3071619 48.0882644,28.7677333 C49.6919569,27.0092571 51.2476029,25.2046857 52.7960608,23.3966857 C53.3601338,22.738781 53.8311405,22.0031619 54.3933219,21.3418286 C54.8386029,20.8172571 55.4151604,20.5471619 56.126021,20.7841143 C56.8039679,21.0081143 57.2780011,21.4713524 57.3105365,22.1795429 C57.3294524,22.6115429 57.1663971,23.0991619 56.9518905,23.4858286 C56.2190874,24.7985905 55.6712821,26.1715429 55.433698,27.6576381 C55.3656007,28.0839238 55.3379834,28.5265905 55.3705188,28.9563048 C55.4284015,29.738019 55.869521,29.9921143 56.5758418,29.6336381 C56.9817777,29.426781 57.3687976,29.1448762 57.6907467,28.8206857 C58.2340122,28.2717333 58.7655498,27.6984 59.2199104,27.0770667 C60.5916936,25.2046857 61.8760852,23.2854476 62.9228927,21.1890667 C64.1145962,18.8081143 65.5279945,16.5391619 66.8358418,14.2172571 C67.0688861,13.8016381 67.2701515,13.3654476 67.5398927,12.8283048 C66.5887998,12.7905905 66.0315365,12.4469714 65.9104746,11.6004952 C65.788656,10.7444952 66.1132533,10.0530667 66.9531206,9.6031619 C67.4377467,9.34449524 67.9742024,9.16468571 68.5083883,9.02792381 C69.4382954,8.78906667 70.1120808,8.24849524 70.5316361,7.39668571 C70.9141162,6.62030476 71.2712489,5.82982857 71.6068175,5.03287619 C71.9711383,4.16697143 72.6169281,3.7231619 73.4628485,3.81497143 C74.5493794,3.92925714 75.2076538,4.90792381 74.8906228,5.95668571 C74.7831803,6.31325714 74.6216383,6.65230476 74.5145741,7.00887619 C74.4544215,7.20354286 74.4544215,7.41687619 74.4120498,7.73154286 C74.7782622,7.74868571 75.0722157,7.76049524 75.3657909,7.77649524 C76.3921692,7.82944762 77.0213131,8.75554286 76.697094,9.7464 C76.5155011,10.3029714 76.1682046,10.7284952 75.629479,10.9662095 C75.2076538,11.1524952 74.7805321,11.3364952 74.3420608,11.482019 C72.602552,12.066781 71.2735188,13.0995429 70.3871184,14.7665905 C69.2211405,16.9555429 67.8716781,19.0439238 66.7450454,21.2492571 C65.8518352,23.0031619 64.8606405,24.7414476 64.5205321,26.7315429 C64.5088042,26.7905905 64.4853485,26.850019 64.4739989,26.9113524 C64.3525586,27.5791619 64.3132135,28.2424 64.9631648,28.6698286 C65.5627998,29.0618286 66.1760542,28.8603048 66.7011604,28.5083048 C67.1021781,28.2382095 67.4933595,27.8923048 67.7612091,27.4961143 C69.2264369,25.3444952 70.7979723,23.250019 72.0592865,20.9822095 C74.5433263,16.5163048 76.8646892,11.9570667 79.2182091,7.41687619 C79.7266692,6.43592381 80.2067555,5.43211429 80.3648927,4.29192381 C80.4821715,3.45954286 81.4888772,2.94030476 82.4010033,3.1064 C83.1818529,3.24849524 83.7701383,4.07135238 83.6626958,4.90792381 C83.6248639,5.1791619 83.5412555,5.45382857 83.4270033,5.7071619 C82.6087002,7.5471619 81.8176361,9.39973333 80.938802,11.210781 C80.0368905,13.0789714 79.0381294,14.9033524 78.0968728,16.7532571 C77.8657201,17.2088762 77.4480564,17.7483048 77.8887976,18.2069714 C78.3787201,18.7166857 78.9427931,18.2511619 79.4020719,18.0004952 C82.1331538,16.5044952 84.6115188,14.6782095 86.58899,12.2283048 C87.0762644,11.6252571 87.6380675,11.2850667 88.4291316,11.4465905 C89.4801007,11.6576381 90.0403905,12.6214476 89.6367246,13.626019 C89.4801007,14.0172571 89.2077113,14.3799238 88.9254856,14.6976381 C86.6166073,17.2919238 83.9116294,19.3764952 80.8691914,21.0264 C80.544594,21.2008762 80.2067555,21.3742095 79.9290697,21.6142095 C79.3948838,22.0709714 79.2155608,22.6934476 79.3180852,23.3791619 C79.493625,24.5422095 79.6869458,25.7029714 79.8988042,26.8599238 C79.9597135,27.1936381 80.0595896,27.5304 80.2143219,27.8286857 C80.6285808,28.6397333 81.3050144,28.8290667 82.0347909,28.2812571 C82.6480454,27.8222095 83.2427622,27.3064 83.743656,26.7273524 C84.4923485,25.8637333 85.1967777,24.9524952 85.8402976,24.0058286 C87.2699635,21.9094476 88.6549878,19.7848762 90.044552,17.6610667 C91.6913728,15.1422095 93.64274,12.9326857 96.2168197,11.3323048 C96.5546582,11.1201143 96.8629878,10.8576381 97.1822887,10.6130667 C99.15976,9.1064 102.207494,9.34030476 103.467295,12.1464 C103.858477,13.018019 104.110437,13.9536381 104.402121,14.8679238 C104.79595,16.114781 104.900744,16.1742095 106.08072,15.6690667 C108.746353,14.5349714 109.326694,13.9730667 110.56039,11.3208762 C110.644377,11.1384 110.672373,10.9265905 110.741983,10.6625905" id="Fill-1"></path>
                        <path d="M12.6921723,47.8348571 C10.9110485,47.8626667 9.18969889,47.548381 7.54817456,46.8580952 C3.96701084,45.3506667 1.57906394,42.7575238 0.624944469,38.9224762 C-0.496391814,34.420381 0.242464381,30.2851429 3.21983164,26.6786667 C5.52681836,23.8885714 8.54882721,22.5232381 12.1511768,22.5567619 C13.0023936,22.5651429 13.8785794,22.7167619 14.6949909,22.9670476 C18.1301237,24.0093333 20.0701414,27.284 19.4338095,30.8809524 C19.3520927,31.3373333 19.2401104,31.7918095 19.0978626,32.2321905 C18.9389688,32.7251429 18.61021,33.084 18.1229356,33.2885714 C17.1831923,33.6794286 16.3414334,33.3102857 16.1291967,32.3064762 C16.0028383,31.7110476 16.0777454,31.0744762 16.0293206,30.4584762 C15.975221,29.7834286 15.9638715,29.0878095 15.7913582,28.4394286 C15.4648692,27.2379048 14.6389998,26.484 13.4193007,26.2059048 C11.2326192,25.7041905 9.18969889,26.0047619 7.36847323,27.388381 C3.45136261,30.3575238 2.41552633,36.2790476 5.04824535,40.444381 C6.62015907,42.9331429 8.93811704,44.14 11.7618869,44.3026667 C16.8430838,44.5967619 20.8604489,42.524 23.8408427,38.4078095 C24.7665883,37.1297143 25.6030507,35.7868571 26.0324423,34.2310476 C27.0122874,30.6706667 26.2704046,27.5274286 23.7519378,24.8512381 C22.6302232,23.6592381 21.3829069,22.5857143 20.2309268,21.4173333 C19.6059445,20.7830476 18.9994998,20.1068571 18.4917962,19.3735238 C16.6565728,16.7255238 16.4836812,13.8931429 17.7941768,10.9834286 C19.8181812,6.492 25.4006502,4.24590476 29.8008737,6.10761905 C31.1980042,6.7 32.3537675,7.60742857 33.2239002,8.85885714 C35.5346701,12.1822857 33.7255507,17.0238095 29.8311392,17.9087619 C28.6746192,18.1739048 27.4991834,18.1133333 26.3517431,17.795619 C26.0627077,17.716 25.7736723,17.5632381 25.53571,17.3780952 C24.9716369,16.932 24.7877741,16.3064762 24.9599091,15.6260952 C25.1278924,14.9700952 25.6015374,14.5499048 26.2775927,14.4878095 C26.7296834,14.4424762 27.1938803,14.5220952 27.6527808,14.5586667 C28.0496369,14.588 28.4533029,14.6988571 28.8425927,14.6569524 C29.1921591,14.6192381 29.579179,14.492 29.8542166,14.2809524 C31.0224644,13.3838095 31.0973715,11.5693333 30.0857476,10.4946667 C28.0988184,8.3872381 23.7175108,8.49809524 21.9099046,10.9449524 C20.156398,13.3182857 20.0701414,15.7457143 21.9564378,17.9982857 C22.8848316,19.1060952 23.9641746,20.1034286 25.0741613,21.0318095 C26.8533936,22.515619 28.1264356,24.347619 29.0873648,26.4257143 C29.5746392,27.4767619 29.7637985,28.6020952 29.8595131,29.7586667 C30.4678493,37.1342857 25.1789555,43.9011429 18.9786923,46.5102857 C16.9645241,47.3586667 14.8864201,47.8691429 12.6921723,47.8348571" id="Fill-3"></path>
                    </g>
                    <g id="Group-10" transform="translate(167.000000, 5.000000)">
                        <path d="M4.57567826,4.41383478 C5.11372174,4.41383478 5.45611304,4.11213913 5.45611304,3.64609565 L5.45611304,3.6327913 C5.45611304,3.14053043 5.12585217,2.87131304 4.56902609,2.87131304 L3.47454783,2.87131304 L3.47454783,4.41383478 L4.57567826,4.41383478 Z M2.72246087,2.5430087 C2.72246087,2.31331304 2.8875913,2.13605217 3.10124348,2.13605217 L4.63046087,2.13605217 C5.16889565,2.13605217 5.59072174,2.30705217 5.8662,2.59583478 C6.09237391,2.84509565 6.22072174,3.18631304 6.22072174,3.5870087 L6.22072174,3.59992174 C6.22072174,4.33518261 5.82315652,4.78126957 5.24833043,4.97183478 L6.06772174,6.08118261 C6.14128696,6.1794 6.1902,6.26470435 6.1902,6.38953043 C6.1902,6.61296522 6.01293913,6.76361739 5.82941739,6.76361739 C5.65802609,6.76361739 5.54767826,6.67870435 5.46237391,6.55387826 L4.42228696,5.12953043 L3.47454783,5.12953043 L3.47454783,6.36331304 C3.47454783,6.58635652 3.30941739,6.76361739 3.10124348,6.76361739 C2.8875913,6.76361739 2.72246087,6.58635652 2.72246087,6.36331304 L2.72246087,2.5430087 Z" id="Fill-6" fill="#020303"></path>
                        <path d="M4.3758,0.53463913 C2.21501739,0.53463913 0.456495652,2.29276957 0.456495652,4.45394348 C0.456495652,6.61511739 2.21501739,8.37324783 4.3758,8.37324783 C6.53658261,8.37324783 8.29510435,6.61511739 8.29510435,4.45394348 C8.29510435,2.29276957 6.53658261,0.53463913 4.3758,0.53463913 M4.3758,8.79311739 C1.98297391,8.79311739 0.0362347826,6.84676957 0.0362347826,4.45394348 C0.0362347826,2.06111739 1.98297391,0.114769565 4.3758,0.114769565 C6.76823478,0.114769565 8.71497391,2.06111739 8.71497391,4.45394348 C8.71497391,6.84676957 6.76823478,8.79311739 4.3758,8.79311739" id="Fill-8" fill="#000000"></path>
                    </g>
                </g>
            </g>
        </g>
    </g>
</svg>